<?xml version="1.0" encoding="UTF-8"?>
<!DOCTYPE svg PUBLIC "-//W3C//DTD SVG 1.1//EN" "http://www.w3.org/Graphics/SVG/1.1/DTD/svg11.dtd">
<!-- Creator: CorelDRAW 2020 (64-Bit) -->
<svg xmlns="http://www.w3.org/2000/svg" xml:space="preserve" width="36.97mm" height="13.3651mm" version="1.1" style="shape-rendering:geometricPrecision; text-rendering:geometricPrecision; image-rendering:optimizeQuality; fill-rule:evenodd; clip-rule:evenodd"
viewBox="0 0 3697 1336.51"
 xmlns:xlink="http://www.w3.org/1999/xlink"
 xmlns:xodm="http://www.corel.com/coreldraw/odm/2003">
 <defs>
  <style type="text/css">
   <![CDATA[
    .fil1 {fill:#002868}
    .fil0 {fill:gray}
    .fil4 {fill:#BF0A30}
    .fil2 {fill:#BF0A30}
    .fil3 {fill:#002868;fill-rule:nonzero}
   ]]>
  </style>
 </defs>
 <g id="Capa_x0020_1">
  <metadata id="CorelCorpID_0Corel-Layer"/>
  <path class="fil0" d="M329.09 500.11c158.84,0 287.59,128.08 287.59,286.06 0,158.01 -128.75,286.09 -287.59,286.09 -29.55,0 -58.06,-4.44 -84.89,-12.67l-4.23 6.02c33.57,12.43 69.89,19.22 107.81,19.22 170.83,0 309.3,-137.75 309.3,-307.67 0,-169.92 -138.47,-307.66 -309.3,-307.66 -170.83,0 -309.29,137.74 -309.29,307.66 0,57.1 15.66,110.56 42.91,156.39l0.93 -0.36c-25.92,-42.96 -40.84,-93.26 -40.84,-147.02 0,-157.98 128.76,-286.06 287.6,-286.06z"/>
  <path class="fil1" d="M313.98 548.58c-37.18,5.4 -71.56,19.57 -100.9,40.35 20.93,-2.8 44,-4.05 67.62,-4.22 11.56,-11.88 22.7,-23.94 33.28,-36.13zm-172.05 335.83c10.69,-6.52 21.45,-13.42 32.23,-20.7 -5.56,-11.5 -10.12,-23.58 -13.87,-35.87 -10.66,7.62 -21.66,15.11 -32.99,22.47 3.93,11.71 8.82,23.11 14.63,34.1zm8.98 -96.48c-2.37,-13.72 -3.95,-27.37 -4.94,-40.52 -9.8,8.3 -19.97,16.55 -30.51,24.71l-0.05 5.02c0,11.51 0.85,22.91 2.53,34.17 10.34,-7.21 21.39,-15.01 32.97,-23.38zm-6.34 -82.35c0.1,-17.1 1,-32.22 2,-44.09 -11.09,19.03 -19.54,39.77 -24.81,61.77 7.5,-5.72 15.12,-11.62 22.81,-17.68zm52.32 142.24c18.47,-13.32 36.85,-27.67 54.87,-42.85 -7.19,-10.86 -13.94,-22.08 -20.22,-33.4 -15.39,13.39 -31.69,26.72 -48.91,39.81 4.76,14.57 9.6,26.57 14.26,36.44zm18.2 -108.08c-6.55,-13.57 -12.42,-26.89 -17.61,-39.47 -10.82,10.66 -22.23,21.41 -34.25,32.13 2.71,14.74 5.57,28.12 8.53,40.29 13.94,-10.34 28.48,-21.35 43.33,-32.95zm-28.8 -68.04c-7.08,-19.14 -12.12,-34.88 -15.11,-44.71 -7.09,8.21 -13.6,16.95 -19.47,26.1 1.68,15.09 3.51,29.23 5.45,42.49 9.64,-7.74 19.38,-15.71 29.13,-23.88zm86.8 114.72c28.57,-25.61 55.84,-53.27 80.55,-82.34 -10.59,-7.38 -21.39,-14.56 -32.14,-21.48 -21.16,23.73 -45.36,48.67 -72.7,73.59 8.44,11.47 16.55,21.49 24.29,30.23zm26.92 -117.34c-16.52,-10.16 -32.61,-19.56 -47.42,-27.93 -13.71,16.02 -28.95,32.77 -45.77,49.8 7.79,13.6 15.36,26.02 22.74,37.36 23.25,-18.54 47.06,-38.4 70.45,-59.23zm-66.63 -38.61c-18.2,-9.98 -33.36,-17.85 -43.35,-22.92 -6.16,5.66 -12.01,11.63 -17.51,17.91 6.97,14.43 13.81,27.92 20.53,40.53 13.52,-11.48 27.04,-23.34 40.33,-35.52zm133.48 57.62c19.77,-24.6 37.59,-50.06 52.75,-76.04 -12.37,-2.08 -24.65,-3.9 -36.73,-5.46 -13.82,18.96 -30.45,40.28 -49.96,62.95 11.88,6.32 23.28,12.56 33.94,18.55zm0.48 -83.39c-28.45,-3.26 -55.63,-5.21 -80.23,-6.35 -8.33,10.99 -17.57,22.62 -27.69,34.72 17.73,8.06 35.38,16.71 52.36,25.42 19.1,-17.39 37.8,-35.38 55.56,-53.79zm-99.45 -7.07c-26.37,-0.79 -48.99,-0.66 -66.02,-0.26 -3.4,2.73 -6.74,5.56 -9.97,8.47 15.55,5.31 31.71,11.63 48.01,18.61 9.48,-8.8 18.83,-17.75 27.98,-26.82zm161.83 -3.72c4.83,-9.12 9.31,-18.28 13.43,-27.47 -8.57,-3.84 -17.35,-7.15 -26.31,-9.92 -5.94,9.48 -13.35,20.85 -22.3,33.7 12.55,1.17 24.38,2.43 35.18,3.69zm-17.81 -38.84c-20.78,-5.92 -42.36,-8.93 -64.15,-8.93 -8.34,0 -16.6,0.44 -24.71,1.3 -7.03,10.78 -15.6,23.37 -25.79,37.31 28.95,0.34 58.18,2.09 84.82,4.36 10.38,-11.23 20.35,-22.6 29.83,-34.04z"/>
  <path class="fil1" d="M280.78 998.43c21.22,6.34 43.71,9.76 67.01,9.76 128.34,0 232.37,-103.44 232.37,-231.03 0,-81.28 -42.23,-152.75 -106.05,-193.92 -23.5,168.71 -110.75,312.59 -193.33,415.19z"/>
  <path class="fil2" d="M465.85 538.52c0,0 -79.36,347.87 -465.85,439.14 0,0 99.62,-1.6 159.03,106.72 0,0 321.19,-408.48 306.82,-545.86z"/>
  <polygon class="fil3" points="823.77,588.72 949.05,588.72 949.05,738.83 1001.54,738.83 1176.48,588.72 1336.18,588.72 1114.97,788.49 1357.06,997.29 1179.87,997.29 998.15,840.41 949.05,840.41 949.05,997.29 823.77,997.29 "/>
  <polygon class="fil3" points="1881.96,588.72 2359.38,588.72 2359.38,690.75 2183.31,690.75 2183.31,997.3 2058.02,997.3 2058.02,690.75 1881.96,690.75 "/>
  <path class="fil1" d="M2411.27 588.72l435.97 0 0 102.15 -435.97 0 0 -102.15zm112.66 313.83l330.67 0 0 94.75 -330.67 0 -112.66 0 0 -94.75 0 -69.5 0 -65.3 0 -16.84 435.97 0 0 82.14 -323.31 0 0 69.5z"/>
  <path class="fil4" d="M2892.09 588.72l244.26 250.36c0,0 -292.74,341.18 -865.59,497.03 0,0 469.63,33.69 1029.85,-520.21l-228.24 -227.18 -180.28 0z"/>
  <path class="fil4" d="M3128.98 588.72l191.62 198.78c154.89,-138.11 412.27,-502.63 214.49,-708.07 -213.44,-221.76 -841.98,79.72 -992.68,189.99 191.83,-101.73 700.14,-304.91 889.99,-108.66 135.17,139.73 -32.59,430.82 -112.85,496.18l-49.67 -68.22 -140.9 0z"/>
  <path class="fil1" d="M3565.44 72.03c0,0 260.63,238.51 -213.24,745.02l181.57 176.42 163.23 1.05 -240.1 -209.56c0,0 444.36,-511.78 108.54,-712.93z"/>
  <path class="fil1" d="M3484.26 993.47l-151.65 -159c0,0 -275.89,284.34 -686.58,461.25 0,0 282.21,-63.19 629.72,-334.87l30.54 34.75 177.97 -2.13z"/>
  <path class="fil1" d="M1596.88 588.72l163.1 0 224.6 408.58 -49.31 0 -90.08 0 -329.57 0 -83.71 0 -56.24 0 221.21 -408.58zm83.24 127.49l28.12 87.12 91.57 -0.17 -74.18 53.66 28.46 87.02 -73.97 -53.95 -73.97 53.95 28.46 -87.02 -74.18 -53.66 91.57 0.17 28.12 -87.12z"/>
 </g>
</svg>
